Patient4_TMGait_0pt5_02_right_03_GRF.mot
version=1
nRows=32
nColumns=19
inDegrees=no
endheader
time	F1x	F1y	F1z	M1x	M1y	M1z	F2x	F2y	F2z	M2x	M2y	M2z	EC1x	EC1y	EC1z	EC2x	EC2y	EC2z
3.81	-3.4012	790.4366	69.5926	-297.6578	-58.3806	638.2669	1.3293	8.1284	-3.0371	3.5692	-3.3042	16.1726	-0.0592	0.0182	-0.0073	-0.0462	0.0165	0.9585
3.8231	-3.5191	787.1919	68.268	-295.9634	-56.7456	633.55	0.84947	6.2547	-1.8986	2.6646	-2.3976	11.6366	-0.0592	0.0182	-0.0073	-0.0462	0.0165	0.9585
3.8363	-2.9783	782.8331	66.9689	-293.8695	-54.8652	627.4825	0.41683	4.677	-1.0031	1.921	-1.5317	7.8048	-0.0592	0.0182	-0.0073	-0.0462	0.0165	0.9585
3.8494	-1.8475	777.5674	65.7771	-291.4775	-52.8637	620.3187	0.068364	3.4899	-0.36628	1.3723	-0.80349	4.8961	-0.0592	0.0182	-0.0073	-0.0462	0.0165	0.9585
3.8626	-0.28043	771.7587	64.7343	-288.9358	-50.8487	612.4426	-0.19258	2.6895	0.04383	1.0095	-0.25083	2.8983	-0.0592	0.0182	-0.0073	-0.0462	0.0165	0.9585
3.8757	1.5601	765.8422	63.8344	-286.4158	-48.8806	604.2711	-0.37633	2.2168	0.26931	0.80016	0.13586	1.6797	-0.0592	0.0182	-0.0073	-0.0462	0.0165	0.9585
3.8889	3.5309	760.2211	63.0501	-284.074	-46.9858	596.1777	-0.48973	1.9718	0.36075	0.69938	0.37957	1.0349	-0.0592	0.0182	-0.0073	-0.0462	0.0165	0.9585
3.902	5.5487	755.2146	62.351	-282.0305	-45.1649	588.4299	-0.55405	1.8529	0.36009	0.66016	0.51842	0.75794	-0.0592	0.0182	-0.0073	-0.0462	0.0165	0.9585
3.9151	7.5644	751.0264	61.7116	-280.3567	-43.4074	581.1877	-0.57915	1.7518	0.30524	0.6335	0.58472	0.64294	-0.0592	0.0182	-0.0073	-0.0462	0.0165	0.9585
3.9283	9.5874	747.7581	61.1096	-279.0864	-41.6885	574.521	-0.58876	1.5642	0.22123	0.5732	0.61193	0.53481	-0.0592	0.0182	-0.0073	-0.0462	0.0165	0.9585
3.9414	11.6606	745.4613	60.5281	-278.2325	-39.9762	568.4637	-0.59468	1.178	0.13274	0.4333	0.61676	0.29376	-0.0592	0.0182	-0.0073	-0.0462	0.0165	0.9585
3.9546	13.8334	744.1723	59.9609	-277.7963	-38.2448	563.0525	-0.60265	0.48794	0.057249	0.17212	0.60906	-0.21222	-0.0592	0.0182	-0.0073	-0.0462	0.0165	0.9585
3.9677	16.1512	743.9215	59.4175	-277.7723	-36.4781	558.3318	-0.61529	-0.59213	0.0094687	-0.24225	0.58965	-1.084	-0.0592	0.0182	-0.0073	-0.0462	0.0165	0.9585
3.9809	18.6389	744.7311	58.9346	-278.1457	-34.6901	554.3658	-0.62727	-2.1058	0.0034321	-0.8237	0.54795	-2.375	-0.0592	0.0182	-0.0073	-0.0462	0.0165	0.9585
3.994	21.3037	746.5624	58.5642	-278.8723	-32.9124	551.1821	-0.63956	-4.0036	0.058183	-1.5515	0.46388	-4.0451	-0.0592	0.0182	-0.0073	-0.0462	0.0165	0.9585
4.0071	24.1125	749.2732	58.3635	-279.8674	-31.1978	548.7397	-0.63722	-6.0947	0.19917	-2.3495	0.30666	-5.926	-0.0592	0.0182	-0.0073	-0.0462	0.0165	0.9585
4.0203	26.9946	752.57	58.3661	-280.9945	-29.599	546.8899	-0.60925	-7.9638	0.45321	-3.0563	0.046053	-7.6324	-0.0592	0.0182	-0.0073	-0.0462	0.0165	0.9585
4.0334	29.8828	755.9562	58.577	-282.0504	-28.1545	545.3346	-0.53126	-8.9054	0.84821	-3.3995	-0.35169	-8.5215	-0.0592	0.0182	-0.0073	-0.0462	0.0165	0.9585
4.0466	32.7207	758.7103	58.9712	-282.7607	-26.8802	543.6098	-0.37105	-7.8516	1.4036	-2.9698	-0.91212	-7.6242	-0.0592	0.0182	-0.0073	-0.0462	0.0165	0.9585
4.0597	35.4725	759.905	59.4985	-282.7862	-25.7697	541.0727	-0.09792	-3.3519	2.1183	-1.2141	-1.6386	-3.624	-0.0592	0.0182	-0.0073	-0.0462	0.0165	0.9585
4.0729	38.1283	758.5363	60.0637	-281.7681	-24.7696	537.0136	0.31171	6.3841	2.9502	2.5462	-2.4945	5.1177	-0.0592	0.0182	-0.0073	-0.0462	0.0165	0.9585
4.086	40.6922	753.6232	60.5493	-279.3672	-23.807	530.725	0.86456	23.3195	3.7899	9.048	-3.3773	20.4021	-0.0592	0.0182	-0.0073	-0.0462	0.0165	0.9585
4.0991	43.1512	744.2352	60.8164	-275.2757	-22.8002	521.5482	1.5247	49.2306	4.4275	18.9483	-4.0762	43.8499	-0.0592	0.0182	-0.0073	-0.0462	0.0165	0.9585
4.1123	45.4421	729.4858	60.7032	-269.2131	-21.6672	508.8685	2.0218	85.2286	4.5449	32.6419	-4.1956	76.4922	-0.0592	0.0182	-0.0073	-0.0462	0.0165	0.9585
4.1254	47.4451	708.5071	60.0183	-260.9113	-20.3269	492.1036	1.616	131.0307	3.7234	49.9846	-3.0687	118.0982	-0.0592	0.0182	-0.0073	-0.0462	0.0165	0.9585
4.1386	48.9697	680.4679	58.5726	-250.1174	-18.7227	470.7162	-0.92042	184.0899	1.4341	69.9676	0.23852	166.4035	-0.0592	0.0182	-0.0073	-0.0462	0.0165	0.9585
4.1517	49.7716	644.723	56.2398	-236.6381	-16.8663	444.3117	-6.026	239.5599	-2.7305	90.7248	6.2262	217.0224	-0.0592	0.0182	-0.0073	-0.0462	0.0165	0.9585
4.1649	49.5696	601.0861	52.9988	-220.4236	-14.8507	412.8214	-12.6776	292.3517	-8.4539	110.3403	14.1732	265.1825	-0.0592	0.0182	-0.0073	-0.0462	0.0165	0.9585
4.178	48.1542	550.0858	48.9858	-201.6543	-12.8417	376.6529	-19.5872	339.6291	-14.9715	127.7772	22.8517	308.0732	-0.0592	0.0182	-0.0073	-0.0462	0.0165	0.9585
4.1911	45.4406	493.0073	44.443	-180.7631	-11.0178	336.707	-25.8103	381.5991	-21.448	143.1627	31.1286	345.697	-0.0592	0.0182	-0.0073	-0.0462	0.0165	0.9585
4.2043	41.4654	431.7033	39.6012	-158.381	-9.4976	294.2407	-30.8316	420.3995	-27.1942	157.3537	38.1864	379.9298	-0.0592	0.0182	-0.0073	-0.0462	0.0165	0.9585
4.2174	36.3518	368.364	34.604	-135.2665	-8.3116	250.7115	-34.4825	458.4813	-31.7892	171.3104	43.5989	412.9887	-0.0592	0.0182	-0.0073	-0.0462	0.0165	0.9585
